# AST/ASF file generated using VICON BodyLanguage
# -----------------------------------------------
:version 1.10
:name VICON
:units
  mass 1.0
  length 0.45
  angle deg
:documentation
   .ast/.asf automatically generated from VICON data using
   VICON BodyBuilder and BodyLanguage model FoxedUp or BRILLIANT.MOD
:root
   order TX TY TZ RX RY RZ
   axis XYZ
   position 0 0 0  
   orientation 0 0 0 
:bonedata
  begin
     id 1 
     name lhipjoint
     direction 0.612567 -0.751349 0.245431 
     length 2.42285 
     axis 0 0 0  XYZ
  end
  begin
     id 2 
     name lfemur
     direction 0.34202 -0.939693 0  
     length 7.11304  
     axis 0 0 20  XYZ
    dof rx ry rz
    limits (-160.0 20.0)
           (-70.0 70.0)
           (-60.0 70.0)
  end
  begin
     id 3 
     name ltibia
     direction 0.34202 -0.939693 0   
     length 7.84529   
     axis 0 0 20   XYZ
    dof rx
    limits (-10.0 170.0)
  end
  begin
     id 4 
     name lfoot
     direction 0.0779239 -0.214094 0.9737   
     length 1.97176   
     axis -90 7.62852e-016 20   XYZ
    dof rx rz
    limits (-45.0 90.0)
           (-70.0 20.0)
  end
  begin
     id 5 
     name ltoes
     direction 1.53565e-011 -4.21709e-011 1   
     length 0.993197   
     axis -90 7.62852e-016 20   XYZ
    dof rx
    limits (-90.0 20.0)
  end
  begin
     id 6 
     name rhipjoint
     direction -0.665722 -0.709315 0.231701   
     length 2.56642  
     axis 0 0 0  XYZ 
  end
  begin
     id 7 
     name rfemur
     direction -0.34202 -0.939693 0   
     length 7.32108   
     axis 0 0 -20   XYZ
    dof rx ry rz
    limits (-160.0 20.0)
           (-70.0 70.0)
           (-70.0 60.0)
  end
  begin
     id 8 
     name rtibia
     direction -0.34202 -0.939693 0   
     length 7.81254   
     axis 0 0 -20   XYZ
    dof rx
    limits (-10.0 170.0)
 end
 begin
     id 9 
     name rfoot
     direction -0.0832806 -0.228812 0.969902   
     length 2.08278  
     axis -90 -7.62852e-016 -20   XYZ
    dof rx rz
    limits (-45.0 90.0)
           (-20.0 70.0)
  end
  begin
     id 10 
     name rtoes
     direction -1.53589e-011 -4.22086e-011 1   
     length 1.04609   
     axis -90 -7.62852e-016 -20   XYZ
    dof rx
    limits (-90.0 20.0)
  end
  begin
     id 11 
     name lowerback
     direction -0.00506013 0.988403 -0.151766   
     length 2.01978   
     axis 0 0 0   XYZ
    dof rx ry rz
    limits (-20.0 45.0)
           (-30.0 30.0)
           (-30.0 30.0)
  end
  begin
     id 12 
     name upperback
     direction -0.00836389 0.99968 0.0238859   
     length 2.01276   
     axis 0 0 0   XYZ
    dof rx ry rz
    limits (-20.0 45.0)
           (-30.0 30.0)
           (-30.0 30.0)
  end
  begin
     id 13 
     name thorax
     direction -0.00684136 0.995386 0.0957043   
     length 2.07303   
     axis 0 0 0   XYZ
    dof rx ry rz
    limits (-20.0 45.0)
           (-30.0 30.0)
           (-30.0 30.0)
  end
  begin
     id 14 
     name lowerneck
     direction -0.0161045 0.999661 0.0204485   
     length 1.91243   
     axis 0 0 0   XYZ
    dof rx ry rz
    limits (-20.0 45.0)
           (-30.0 30.0)
           (-30.0 30.0)
  end
  begin
     id 15 
     name upperneck
     direction 0.0553583 0.990946 -0.122319   
     length 1.91574   
     axis 0 0 0   XYZ
    dof rx ry rz
    limits (-20.0 45.0)
           (-30.0 30.0)
           (-30.0 30.0)
  end
  begin
     id 16
     name head
     direction 0.0180273 0.998839 -0.0446756  
     length 1.92693  
     axis 0 0 0   XYZ
    dof rx ry rz
    limits (-20.0 45.0)
           (-30.0 30.0)
           (-30.0 30.0)
  end
  begin
     id 17 
     name lclavicle
     direction 0.945646 0.319323 -0.0615358  
     length 4.0076  
     axis 0 0 0   XYZ
    dof ry rz
    limits (-20.0 10.0)
           (0.0 20.0)
  end
  begin
     id 18 
     name lhumerus
     direction 1 -4.48967e-011 -2.79996e-027   
     length 5.64147   
     axis 180 -30 -90   XYZ
    dof rx ry rz
    limits (-60.0 90.0)
           (-90.0 90.0)
           (-90.0 90.0)
  end
  begin
     id 19
     name lradius
     direction 1 -4.48976e-011 -9.5122e-027   
     length 2.86444   
     axis 180 -30 -90   XYZ
    dof rx
    limits (-10.0 170.0)
  end
  begin
     id 20
     name lwrist
     direction 1 -4.48983e-011 -1.24047e-026   
     length 1.43222   
     axis 9.05591e-015 90 90   XYZ
    dof ry
    limits (-180.0 0.0)
 end
  begin
     id 21 
     name lhand
     direction 1 -4.4892e-011 -2.48094e-026   
     length 0.722123   
     axis 1.58305e-014 90 90   XYZ
    dof rx rz
    limits (-90.0 90.0)
           (-45.0 45.0)
  end
  begin
     id 22 
     name lfingers
     direction 1 -4.48895e-011 -4.96187e-026   
     length 0.582194   
     axis 3.1661e-014 90 90   XYZ
    dof rx
    limits (0.0 90.0)
  end
  begin
     id 23
     name lthumb
     direction 0.707107 -6.34961e-011 0.707107   
     length 0.835918   
     axis -90 45 2.85299e-015   XYZ
    dof rx rz
    limits (-45.0 45.0)
           (-45.0 45.0)
  end
  begin
     id 24 
     name rclavicle
     direction -0.932635 0.324218 -0.15835   
     length 3.65819  
     axis 0 0 0   XYZ 
    dof ry rz
    limits (-10.0 20.0)
           (-20.0 0.0)
  end
  begin
     id 25 
     name rhumerus
     direction -1 -4.48965e-011 -4.02296e-027  
     length 5.44729   
     axis 180 30 90   XYZ
    dof rx ry rz
    limits (-90.0 60.0)
           (-90.0 90.0)
           (-90.0 90.0)
  end
  begin
     id 26 
     name rradius
     direction -1 -4.48957e-011 -8.81087e-027   
     length 3.08821   
     axis 180 30 90   XYZ
    dof rx
    limits (-10.0 170.0)
  end
  begin
     id 27 
     name rwrist
     direction -1 -4.49015e-011 -1.24047e-026   
     length 1.5441   
     axis 9.05591e-015 -90 -90   XYZ
    dof ry
    limits (-180.0 0.0)
  end
  begin
     id 28
     name rhand
     direction -1 -4.4891e-011 -2.48094e-026   
     length 0.821049   
     axis 1.58305e-014 -90 -90   XYZ
    dof rx rz
    limits (-90.0 90.0)
           (-45.0 45.0)
  end
  begin
     id 29
     name rfingers
     direction -1 -4.48985e-011 -4.96187e-026   
     length 0.661951   
     axis 3.1661e-014 -90 -90   XYZ
    dof rx
    limits (0.0 90.0)
  end
  begin
     id 30
     name rthumb
     direction -0.707107 -6.34906e-011 0.707107   
     length 0.950433   
     axis -90 -45 -2.85299e-015   XYZ
    dof rx rz
    limits (-45.0 45.0)
           (-45.0 45.0)
  end
:hierarchy
  begin
    root lhipjoint rhipjoint lowerback
    lhipjoint lfemur
    lfemur ltibia
    ltibia lfoot
    lfoot ltoes
    rhipjoint rfemur
    rfemur rtibia
    rtibia rfoot
    rfoot rtoes
    lowerback upperback
    upperback thorax
    thorax lowerneck lclavicle rclavicle
    lowerneck upperneck
    upperneck head
    lclavicle lhumerus
    lhumerus lradius
    lradius lwrist
    lwrist lhand lthumb
    lhand lfingers
    rclavicle rhumerus
    rhumerus rradius
    rradius rwrist
    rwrist rhand rthumb
    rhand rfingers
  end

#!OML:ASF F:\VICON\USERDATA\INSTALL\rory3\rory3.ASF
:FULLY-SPECIFIED
:DEGREES
1272
root 3.1169 18.03 -0.564075 -61.6847 85.8559 -63.266
lowerback 1.78305 0.563086 2.43656
upperback -3.39569 0.97183 1.75953
thorax -4.4951 0.454019 0.395044
lowerneck 10.9507 -1.6345 -4.05726
upperneck -4.66105 -2.11489 8.12453
head -3.03441 -1.32351 3.25224
rclavicle -2.75814e-015 1.90833e-014
rhumerus 30.6235 13.1148 -66.2777
rradius 115.519
rwrist -11.7569
rhand 40.7341 -4.32377
rfingers 7.12502
rthumb 63.0008 -14.5131
lclavicle -2.75814e-015 1.90833e-014
lhumerus -5.15341 -31.2122 94.8831
lradius 125.614
lwrist 23.93
lhand -17.3452 25.8476
lfingers 7.12502
lthumb 8.90228 55.6398
rfemur -1.53371 -0.927995 20.4823
rtibia 12.2018
rfoot -9.65508 -0.896294
rtoes -16.0351
lfemur 0.329229 0.775787 -17.0967
ltibia 11.9449
lfoot -16.1293 5.5749
ltoes -15.2323
1273
root 3.11831 18.0274 -0.558483 -62.2024 85.8104 -63.7148
lowerback 1.7537 0.589212 2.49417
upperback -3.35744 1.00723 1.77677
thorax -4.43768 0.470579 0.379079
lowerneck 10.8764 -1.58194 -4.09543
upperneck -4.45409 -2.06072 8.10307
head -2.96333 -1.29071 3.24527
rclavicle -7.70291e-016 1.98785e-016
rhumerus 30.5938 13.1384 -66.1676
rradius 115.643
rwrist -11.7001
rhand 40.6372 -4.23237
rfingers 7.12502
rthumb 62.9213 -14.5299
lclavicle -7.70291e-016 1.98785e-016
lhumerus -4.93488 -31.2407 94.7788
lradius 125.748
lwrist 23.9501
lhand -17.147 26.6276
lfingers 7.12502
lthumb 9.09345 56.4115
rfemur -1.41665 -0.844529 20.5835
rtibia 12.1668
rfoot -9.80856 -1.02936
rtoes -15.3552
lfemur 0.388536 0.758867 -17.0133
ltibia 11.9934
lfoot -16.1631 5.54405
ltoes -15.0934
1274
root 3.11986 18.0242 -0.552783 -61.2226 85.8373 -62.6208
lowerback 1.75297 0.629478 2.45468
upperback -3.2872 1.05445 1.7544
thorax -4.3636 0.495121 0.37574
lowerneck 10.856 -1.54549 -4.16307
upperneck -4.34554 -2.0294 8.07342
head -2.92885 -1.27106 3.24395
rclavicle 4.58447e-015 2.98177e-015
rhumerus 30.6639 13.2226 -65.9857
rradius 115.756
rwrist -11.2138
rhand 40.4516 -4.24438
rfingers 7.12502
rthumb 62.7685 -14.7474
lclavicle 4.58447e-015 2.98177e-015
lhumerus -4.77061 -31.2338 94.7027
lradius 125.902
lwrist 23.8422
lhand -17.0937 27.0868
lfingers 7.12502
lthumb 9.14492 56.8685
rfemur -1.2469 -0.794116 20.5548
rtibia 12.1052
rfoot -9.91234 -1.02145
rtoes -14.7788
lfemur 0.464867 0.843518 -17.0457
ltibia 12.1109
lfoot -16.2522 5.41368
ltoes -14.8673
1275
root 3.11865 18.0216 -0.547267 -59.76 85.8254 -61.117
lowerback 1.75614 0.684925 2.46096
upperback -3.25625 1.12535 1.71826
thorax -4.33147 0.529418 0.331178
lowerneck 10.8838 -1.55087 -4.22527
upperneck -4.29839 -2.05264 8.0265
head -2.91733 -1.27975 3.24074
rclavicle 9.50439e-015 1.59028e-014
rhumerus 30.7841 13.338 -65.7676
rradius 115.829
rwrist -10.6275
rhand 40.213 -4.15974
rfingers 7.12502
rthumb 62.5715 -14.9234
lclavicle 9.50439e-015 1.59028e-014
lhumerus -4.78872 -31.2262 94.6671
lradius 125.963
lwrist 23.729
lhand -16.9552 27.0162
lfingers 7.12502
lthumb 9.27852 56.792
rfemur -1.19881 -0.763412 20.5576
rtibia 12.0797
rfoot -9.98451 -1.07139
rtoes -15.2404
lfemur 0.458956 0.988964 -17.0575
ltibia 12.2155
lfoot -16.2656 5.35603
ltoes -15.1228
1276
root 3.11854 18.0161 -0.541647 -58.4215 85.8217 -59.7676
lowerback 1.70878 0.722512 2.45796
upperback -3.23277 1.17017 1.67354
thorax -4.27859 0.551164 0.285077
lowerneck 10.8117 -1.5549 -4.27135
upperneck -4.07384 -2.07817 7.97449
head -2.83646 -1.28527 3.22974
rclavicle -3.95085e-015 -9.93923e-015
rhumerus 30.9446 13.4497 -65.6216
rradius 115.876
rwrist -10.2981
rhand 40.1542 -4.11881
rfingers 7.12502
rthumb 62.5229 -14.9461
lclavicle -3.95085e-015 -9.93923e-015
lhumerus -4.74907 -31.1739 94.6044
lradius 125.952
lwrist 23.701
lhand -16.8907 26.8532
lfingers 7.12502
lthumb 9.34082 56.6263
rfemur -1.2139 -0.807293 20.5648
rtibia 12.1084
rfoot -10.0934 -1.0592
rtoes -15.2764
lfemur 0.438618 1.25307 -17.0565
ltibia 12.2917
lfoot -16.2424 5.15595
ltoes -15.2344
1277
root 3.12079 18.0123 -0.536377 -56.5444 85.7801 -57.868
lowerback 1.64654 0.771776 2.48553
upperback -3.19755 1.22971 1.60897
thorax -4.20378 0.579007 0.201051
lowerneck 10.5778 -1.51614 -4.48425
upperneck -3.3991 -2.0822 7.86173
head -2.88447 -1.25085 3.57118
rclavicle 2.2736e-015 9.14409e-015
rhumerus 31.1221 13.5617 -65.4921
rradius 115.803
rwrist -10.1861
rhand 39.9005 -3.91173
rfingers 7.12502
rthumb 62.3126 -15.0108
lclavicle 2.2736e-015 9.14409e-015
lhumerus -4.69 -31.1414 94.4848
lradius 125.903
lwrist 23.6351
lhand -16.9146 26.5559
lfingers 7.12502
lthumb 9.31774 56.33
rfemur -1.22942 -0.801017 20.5663
rtibia 12.1653
rfoot -10.195 -1.03749
rtoes -14.9884
lfemur 0.460675 1.62672 -17.0361
ltibia 12.3454
lfoot -16.1933 4.89804
ltoes -15.1148
